<svg width="90" height="91" viewBox="0 0 90 91" fill="none" xmlns="http://www.w3.org/2000/svg">
<path fill-rule="evenodd" clip-rule="evenodd" d="M38.97 0L51.984 7.512L13.013 30.014V40.727L25.894 48.162V37.451L64.864 14.947L77.944 22.5V46.213C75.075 45.022 71.926 44.361 68.624 44.361C55.202 44.361 44.323 55.242 44.323 68.662C44.323 74.404 46.317 79.683 49.647 83.842L38.969 90.004L0 67.504V22.5L38.97 0Z" fill="black"/>
<path fill-rule="evenodd" clip-rule="evenodd" d="M68.5 47C56.6334 47 47 56.6334 47 68.5C47 80.3666 56.6334 90 68.5 90C80.3666 90 90 80.3666 90 68.5C90 56.6334 80.3666 47 68.5 47ZM68.5 66.4733L62.3467 60.32C61.7877 59.761 60.879 59.761 60.32 60.32C59.761 60.879 59.761 61.7877 60.32 62.3467L66.4733 68.5L60.32 74.6533C59.761 75.2123 59.761 76.121 60.32 76.68C60.879 77.239 61.7877 77.239 62.3467 76.68L68.5 70.5267L74.6533 76.68C75.2123 77.239 76.121 77.239 76.68 76.68C77.239 76.121 77.239 75.2123 76.68 74.6533L70.5267 68.5L76.68 62.3467C77.239 61.7877 77.239 60.879 76.68 60.32C76.121 59.761 75.2123 59.761 74.6533 60.32L68.5 66.4733Z" fill="black"/>
</svg>
