<svg width="90" height="91" viewBox="0 0 90 91" fill="none" xmlns="http://www.w3.org/2000/svg">
<path fill-rule="evenodd" clip-rule="evenodd" d="M38.97 0L51.984 7.512L13.013 30.014V40.727L25.894 48.162V37.451L64.864 14.947L77.944 22.5V46.213C75.075 45.022 71.926 44.361 68.624 44.361C55.202 44.361 44.323 55.242 44.323 68.662C44.323 74.404 46.317 79.683 49.647 83.842L38.969 90.004L0 67.504V22.5L38.97 0Z" fill="black"/>
<path d="M68.5 90C72.7523 90 76.9091 88.7391 80.4448 86.3766C83.9804 84.0142 86.7361 80.6563 88.3634 76.7277C89.9907 72.7991 90.4165 68.4762 89.5869 64.3056C88.7573 60.135 86.7096 56.304 83.7028 53.2972C80.696 50.2904 76.865 48.2427 72.6944 47.4131C68.5238 46.5835 64.2009 47.0093 60.2723 48.6366C56.3437 50.2639 52.9859 53.0196 50.6234 56.5552C48.261 60.0909 47 64.2477 47 68.5C47 74.2022 49.2652 79.6708 53.2972 83.7028C57.3292 87.7348 62.7978 90 68.5 90ZM57.3395 69.0668C57.7058 68.7028 58.2011 68.4985 58.7175 68.4985C59.2339 68.4985 59.7292 68.7028 60.0955 69.0668L64.5909 73.5623L75.9077 62.2455C76.2816 61.9253 76.7626 61.7579 77.2545 61.7769C77.7464 61.7959 78.213 61.9999 78.5611 62.348C78.9092 62.696 79.1132 63.1627 79.1322 63.6546C79.1512 64.1465 78.9838 64.6275 78.6636 65.0014L65.9591 77.7059C65.5929 78.0699 65.0975 78.2743 64.5811 78.2743C64.0648 78.2743 63.5694 78.0699 63.2032 77.7059L57.3395 71.8423C57.1563 71.6606 57.0109 71.4444 56.9117 71.2062C56.8125 70.968 56.7614 70.7126 56.7614 70.4546C56.7614 70.1965 56.8125 69.9411 56.9117 69.7029C57.0109 69.4647 57.1563 69.2485 57.3395 69.0668Z" fill="black"/>
</svg>
