<svg width="98" height="96" viewBox="0 0 98 96" fill="none" xmlns="http://www.w3.org/2000/svg">
<path d="M90.6633 47.602C90.7113 47.256 90.7443 46.907 90.7443 46.547V26.264C90.7443 22.137 87.3993 18.792 83.2723 18.792C79.1433 18.792 75.7983 22.137 75.7983 26.264V33.992C73.3193 37.811 69.5493 40.286 63.4583 42.543C61.2473 43.361 60.1183 45.818 60.9373 48.03C61.5753 49.753 63.2063 50.817 64.9413 50.817C65.4333 50.817 65.9353 50.731 66.4233 50.551C69.8853 49.268 73.0253 47.795 75.7963 45.893V46.545C75.7963 46.894 75.8283 47.233 75.8743 47.566L71.5503 89.823C71.2793 92.464 73.2003 94.82 75.8393 95.093C76.0093 95.11 76.1753 95.118 76.3383 95.118C78.7733 95.118 80.8593 93.276 81.1103 90.804L83.6923 65.566L87.5963 91.045C87.9593 93.422 90.0073 95.121 92.3383 95.121C92.5803 95.121 92.8243 95.101 93.0723 95.064C95.6933 94.662 97.4953 92.21 97.0933 89.587L90.6633 47.602Z" fill="black"/>
<path d="M11.7443 17.012C16.1659 17.012 19.7503 13.4276 19.7503 9.006C19.7503 4.58441 16.1659 1 11.7443 1C7.32273 1 3.73832 4.58441 3.73832 9.006C3.73832 13.4276 7.32273 17.012 11.7443 17.012Z" fill="black"/>
<path d="M34.5193 47.614C34.5193 50.26 32.3653 52.417 29.7153 52.417C28.2433 52.417 26.8193 52.263 25.4453 51.974V52.904C25.4453 54.896 27.0613 56.511 29.0523 56.511H54.2183C56.2113 56.511 57.8253 54.896 57.8253 52.904V29.872C57.8253 27.881 56.2113 26.264 54.2183 26.264H29.0523C27.0603 26.264 25.4453 27.88 25.4453 29.872V41.896C26.7703 42.484 28.1993 42.81 29.7153 42.81C32.3633 42.81 34.5193 44.966 34.5193 47.614Z" fill="black"/>
<path d="M4.31632 95.095C4.48232 95.11 4.64732 95.118 4.81032 95.118C7.24332 95.118 9.33032 93.274 9.58332 90.804L12.1653 65.568L16.0683 91.045C16.4323 93.419 18.4793 95.118 20.8113 95.118C21.0533 95.118 21.2983 95.1 21.5443 95.061C24.1673 94.659 25.9673 92.207 25.5663 89.584L19.2323 48.239C21.1293 49.47 23.2073 50.383 25.4453 50.881C26.8153 51.186 28.2403 51.35 29.7153 51.35C31.7763 51.35 33.4513 49.674 33.4513 47.616C33.4513 45.555 31.7743 43.88 29.7143 43.88C28.2063 43.88 26.7773 43.593 25.4443 43.066C22.9833 42.091 20.8643 40.263 19.2153 37.801V26.264C19.2153 22.137 15.8703 18.792 11.7423 18.791C7.61532 18.791 4.27032 22.137 4.27032 26.264V46.546C4.27032 46.895 4.30232 47.236 4.34932 47.573L0.025321 89.825C-0.244679 92.466 1.67532 94.824 4.31632 95.095Z" fill="black"/>
<path d="M80.8571 6.84763C81.3632 6.71215 81.6163 6.84763 81.6163 6.84763C81.6163 6.84763 81.7428 7.25406 81.4898 7.93146C80.9836 9.42172 79.3387 11.183 77.1877 11.7249C74.7837 12.4023 73.1388 12.6732 72.1265 12.8087C72.3796 11.3184 72.8857 9.42173 73.8979 6.84763C74.9102 7.11859 77.4408 7.6605 80.8571 6.84763Z" fill="black"/>
<path d="M88.955 15.9247L74.9102 19.3117C74.0245 19.5826 73.2653 19.0407 72.8857 18.2278C72.5061 17.144 72.1265 16.1957 72 15.1118C73.1388 14.9764 74.9102 14.7054 77.6939 14.028C81.6163 13.0797 84.4 8.87981 83.8938 6.30571C83.6408 5.0864 82.6285 4.00257 80.4775 4.54449C77.8204 5.0864 75.7959 4.81544 74.7837 4.67997C78.7061 -2.36493 88.1959 -0.739186 91.1061 4.81545C93.2571 8.74433 90.9795 13.4861 89.9673 15.1118C89.8408 15.5183 89.4612 15.7892 88.955 15.9247Z" fill="black"/>
</svg>
