<svg width="90" height="92" viewBox="0 0 90 92" fill="none" xmlns="http://www.w3.org/2000/svg">
<path fill-rule="evenodd" clip-rule="evenodd" d="M67.162 54.434C67.162 53.608 67.832 52.934 68.66 52.934C69.486 52.934 70.16 53.608 70.16 54.434V69.66C70.16 70.488 69.486 71.16 68.66 71.16H58.978C58.152 71.16 57.478 70.488 57.478 69.66C57.478 68.832 58.152 68.162 58.978 68.162H67.162V54.434ZM68.66 48.357C80.426 48.357 89.963 57.894 89.963 69.66C89.963 81.426 80.426 90.963 68.66 90.963C56.892 90.963 47.355 81.426 47.355 69.66C47.355 57.894 56.893 48.357 68.66 48.357ZM39.006 0.998001L52.02 8.51L13.049 31.012V41.725L25.93 49.16V38.449L64.9 15.945L77.98 23.498V47.211C75.111 46.02 71.962 45.359 68.66 45.359C55.238 45.359 44.359 56.24 44.359 69.66C44.359 75.402 46.353 80.681 49.683 84.84L39.005 91.002L0.0359955 68.502V23.498L39.006 0.998001Z" fill="black"/>
</svg>
