<svg width="90" height="66" viewBox="0 0 90 66" fill="none" xmlns="http://www.w3.org/2000/svg">
<path d="M85.162 46.9002H85.2568H88.6709C89.2399 46.9002 89.6192 46.426 89.5244 45.857C88.7657 41.21 82.7911 39.3133 80.6099 38.7443C80.0409 38.5547 79.5667 38.1753 79.377 37.7011L75.6785 29.9247C76.1526 30.2092 76.6268 30.304 77.1958 30.304H79.0925C79.377 30.304 79.5667 30.1143 79.5667 29.8298V23.5707C79.5667 23.2862 79.377 23.0965 79.0925 23.0965H77.1958C76.3423 23.0965 75.4888 23.4759 74.9198 24.1397C74.8249 23.6655 74.6353 23.0965 74.4456 22.4327C74.1611 21.3895 72.9282 21.5792 71.4109 21.9585C69.3245 22.4327 67.333 22.9069 65.2466 23.0965L64.3931 23.1914C64.1086 22.243 63.3499 21.4843 62.4015 21.2947L57.0908 19.967C56.1424 18.8289 55.0044 17.4064 53.2025 15.4149C52.918 15.1304 51.8748 13.8027 50.073 13.3285C48.4608 12.9492 46.3744 12.2853 44.6674 13.3285C42.9603 14.2769 41.9171 15.9839 41.6326 17.9754L40.1153 31.8214C40.0204 32.7697 40.3049 33.6232 40.874 34.2871C41.443 34.9509 42.3913 35.3303 43.2448 35.3303H56.5218L56.0476 47.0898C55.9527 48.8917 57.3753 50.3142 59.0823 50.4091H59.1771C60.8842 50.4091 62.3067 49.0814 62.4015 47.3743L63.0654 32.3904C63.0654 31.5369 62.7809 30.6833 62.2119 30.0195C61.6429 29.3556 60.7893 29.0711 59.9358 29.0711H51.6852L52.2542 22.9069C52.918 23.6655 53.3922 24.2345 53.3922 24.2345C53.7715 24.7087 54.3405 25.0881 54.9096 25.1829L61.1687 26.7003C61.3583 26.7951 61.6429 26.7951 61.8325 26.7951C62.4964 26.7951 63.0654 26.6054 63.5396 26.1313L66.1949 25.7519C66.2898 26.1312 66.3846 26.6054 66.3846 27.0796C66.6691 29.166 67.333 30.0195 68.5658 30.304C69.5142 33.8129 70.5574 39.3133 71.316 42.7274C71.6005 44.3396 71.1264 46.0466 69.9884 47.2795L66.3846 51.1677C65.7208 51.8316 64.8673 52.2109 63.9189 52.2109H53.2025C51.9697 52.2109 51.0213 51.2626 51.1162 50.0297L51.3058 43.0119H52.4438C53.1077 43.0119 53.7715 42.5377 53.9612 41.7791L54.5302 39.503C54.7199 38.5547 54.056 37.6063 53.0129 37.6063H22.5708C21.2431 37.6063 20.7689 39.3133 21.8121 40.072L26.9332 43.3913C23.8985 46.6156 23.3294 51.2626 23.2346 53.3489C23.2346 53.918 23.7088 54.3921 24.2778 54.3921H26.459C26.459 54.7715 26.3642 55.1508 26.3642 55.5302C26.3642 61.1254 30.9163 65.5827 36.4167 65.5827C41.6326 65.5827 45.9002 61.5996 46.4692 56.5733C46.9434 56.6682 47.3227 56.6682 47.7969 56.6682H66.8588C67.9968 56.6682 69.04 56.0992 69.7987 55.2456C69.7987 55.3405 69.7987 55.3405 69.7987 55.4353C69.7987 61.4099 74.9198 66.1517 80.9892 65.4878C85.3516 65.0137 89.0502 61.5048 89.8089 57.1423C90.6624 52.8748 88.576 48.8917 85.162 46.9002ZM36.6064 61.3151C33.382 61.3151 30.8214 58.7545 30.8214 55.5302C30.8214 55.1508 30.8214 54.7715 30.9163 54.3921H34.3303C34.1407 54.7715 34.0458 55.056 34.0458 55.5302C34.0458 56.9527 35.1838 57.9959 36.5115 57.9959C37.9341 57.9959 38.9772 56.8578 38.9772 55.5302C38.9772 55.1508 38.8824 54.7715 38.6927 54.3921H42.1068V54.6766C42.1068 54.9611 42.2016 55.2456 42.2016 55.5302C42.3913 58.7545 39.8308 61.3151 36.6064 61.3151ZM80.0409 61.3151C76.8165 61.3151 74.2559 58.7545 74.2559 55.5302C74.2559 52.3058 76.8165 49.7452 80.0409 49.7452C83.2653 49.7452 85.8258 52.3058 85.8258 55.5302C85.8258 58.7545 83.1704 61.3151 80.0409 61.3151Z" fill="black"/>
<path d="M80.0409 53.0644C78.6184 53.0644 77.5752 54.2025 77.5752 55.5302C77.5752 56.9527 78.7132 57.9959 80.0409 57.9959C81.4634 57.9959 82.5066 56.8578 82.5066 55.5302C82.5066 54.1076 81.3686 53.0644 80.0409 53.0644Z" fill="black"/>
<path d="M22.8553 35.4251H34.9942C36.1322 35.4251 37.0805 34.4767 37.0805 33.3387V21.8637C37.0805 20.7256 36.1322 19.7773 34.9942 19.7773H22.8553C21.7173 19.7773 20.7689 20.7256 20.7689 21.8637V33.3387C20.7689 34.4767 21.7173 35.4251 22.8553 35.4251Z" fill="black"/>
<path d="M51.9697 4.79334C51.5903 4.6985 51.4007 4.79334 51.4007 4.79334C51.4007 4.79334 51.3058 5.07784 51.4955 5.55202C51.8748 6.59521 53.1077 7.82806 54.7199 8.20741C56.5218 8.68158 57.7546 8.87125 58.5133 8.96609C58.3236 7.9229 57.9443 6.59521 57.1856 4.79334C56.4269 4.98301 54.5302 5.36235 51.9697 4.79334Z" fill="black"/>
<path d="M45.9002 11.1473L56.4269 13.5182C57.0908 13.7078 57.6598 13.3285 57.9443 12.7595C58.2288 12.0008 58.5133 11.337 58.6081 10.5783C57.7546 10.4834 56.4269 10.2938 54.3405 9.8196C51.4007 9.15576 49.3143 6.21587 49.6936 4.414C49.8833 3.56048 50.642 2.8018 52.2542 3.18114C54.2457 3.56048 55.7631 3.37081 56.5218 3.27598C53.5819 -1.65545 46.4692 -0.51743 44.288 3.37081C42.6758 6.12103 44.3829 9.44026 45.1415 10.5783C45.2364 10.8628 45.5209 11.0525 45.9002 11.1473Z" fill="black"/>
<path d="M14.5098 32.8645C15.6478 32.8645 16.5013 32.011 16.5013 30.873C16.5013 29.735 15.6478 28.8815 14.5098 28.8815H1.99154C0.853516 28.8815 0 29.735 0 30.873C0 32.011 0.853516 32.8645 1.99154 32.8645H14.5098Z" fill="black"/>
<path d="M15.8375 41.4946C16.9755 41.4946 17.829 40.641 17.829 39.503C17.829 38.365 16.9755 37.5115 15.8375 37.5115H3.31923C2.27604 37.5115 1.42253 38.4598 1.42253 39.503C1.42253 40.641 2.27604 41.4946 3.41407 41.4946H15.8375Z" fill="black"/>
<path d="M17.26 46.1415H4.74176C3.60374 46.1415 2.75022 46.995 2.75022 48.133C2.75022 49.271 3.60374 50.1245 4.74176 50.1245H17.26C18.398 50.1245 19.2515 49.271 19.2515 48.133C19.2515 46.995 18.3032 46.1415 17.26 46.1415Z" fill="black"/>
</svg>
